<svg xmlns="http://www.w3.org/2000/svg" viewBox="-180 -20 2010 260" >
	<line x1="30.000" x2="0.000" y1="0.000" y2="0.000" fill="none" stroke="#665782" stroke-width="5.000" />
	<line stroke="#665782" stroke-width="5.000" x1="45.000" x2="75.000" y1="25.981" y2="25.981" fill="none" />
	<line y1="51.962" y2="51.962" fill="none" stroke="#665782" stroke-width="5.000" x1="60.000" x2="30.000" />
	<line stroke="#665782" stroke-width="5.000" x1="210.000" x2="180.000" y1="51.962" y2="51.962" fill="none" />
	<line y1="51.962" y2="51.962" fill="none" stroke="#665782" stroke-width="5.000" x1="1770.000" x2="1740.000" />
	<line y2="77.942" fill="none" stroke="#665782" stroke-width="5.000" x1="1785.000" x2="1815.000" y1="77.942" />
	<line stroke-width="5.000" x1="300.000" x2="270.000" y1="51.962" y2="51.962" fill="none" stroke="#665782" />
	<line x1="810.000" x2="780.000" y1="51.962" y2="51.962" fill="none" stroke="#665782" stroke-width="5.000" />
	<line y1="51.962" y2="51.962" fill="none" stroke="#665782" stroke-width="5.000" x1="870.000" x2="840.000" />
	<line fill="none" stroke="#665782" stroke-width="5.000" x1="1410.000" x2="1380.000" y1="51.962" y2="51.962" />
	<line stroke="#665782" stroke-width="5.000" x1="630.000" x2="600.000" y1="51.962" y2="51.962" fill="none" />
	<line stroke-width="5.000" x1="690.000" x2="660.000" y1="51.962" y2="51.962" fill="none" stroke="#665782" />
	<line y1="51.962" y2="51.962" fill="none" stroke="#665782" stroke-width="5.000" x1="1530.000" x2="1500.000" />
	<line x1="180.000" x2="150.000" y1="51.962" y2="51.962" fill="none" stroke="#665782" stroke-width="5.000" />
	<line fill="none" stroke="#665782" stroke-width="5.000" x1="360.000" x2="330.000" y1="51.962" y2="51.962" />
	<line y2="51.962" fill="none" stroke="#665782" stroke-width="5.000" x1="780.000" x2="750.000" y1="51.962" />
	<line x2="1650.000" y1="51.962" y2="51.962" fill="none" stroke="#665782" stroke-width="5.000" x1="1680.000" />
	<line x1="1695.000" x2="1725.000" y1="77.942" y2="77.942" fill="none" stroke="#665782" stroke-width="5.000" />
	<line fill="none" stroke="#665782" stroke-width="5.000" x1="1710.000" x2="1695.000" y1="103.923" y2="77.942" />
	<line x1="120.000" x2="90.000" y1="51.962" y2="51.962" fill="none" stroke="#665782" stroke-width="5.000" />
	<line stroke="#665782" stroke-width="5.000" x1="1200.000" x2="1170.000" y1="51.962" y2="51.962" fill="none" />
	<line y1="51.962" y2="51.962" fill="none" stroke="#665782" stroke-width="5.000" x1="240.000" x2="210.000" />
	<line x1="1620.000" x2="1590.000" y1="51.962" y2="51.962" fill="none" stroke="#665782" stroke-width="5.000" />
	<line x2="1665.000" y1="103.923" y2="77.942" fill="none" stroke="#665782" stroke-width="5.000" x1="1650.000" />
	<line fill="none" stroke="#665782" stroke-width="5.000" x1="1665.000" x2="1650.000" y1="129.904" y2="103.923" />
	<line y1="51.962" y2="51.962" fill="none" stroke="#665782" stroke-width="5.000" x1="480.000" x2="450.000" />
	<line stroke-width="5.000" x1="660.000" x2="630.000" y1="51.962" y2="51.962" fill="none" stroke="#665782" />
	<line x1="1560.000" x2="1530.000" y1="51.962" y2="51.962" fill="none" stroke="#665782" stroke-width="5.000" />
	<line x2="1710.000" y1="51.962" y2="51.962" fill="none" stroke="#665782" stroke-width="5.000" x1="1740.000" />
	<line fill="none" stroke="#665782" stroke-width="5.000" x1="1755.000" x2="1785.000" y1="77.942" y2="77.942" />
	<line fill="none" stroke="#665782" stroke-width="5.000" x1="0.000" x2="15.000" y1="51.962" y2="25.981" />
	<line stroke="#665782" stroke-width="5.000" x1="840.000" x2="810.000" y1="51.962" y2="51.962" fill="none" />
	<line fill="none" stroke="#665782" stroke-width="5.000" x1="1140.000" x2="1110.000" y1="51.962" y2="51.962" />
	<line stroke-width="5.000" x1="1710.000" x2="1680.000" y1="51.962" y2="51.962" fill="none" stroke="#665782" />
	<line stroke-width="5.000" x1="1725.000" x2="1755.000" y1="77.942" y2="77.942" fill="none" stroke="#665782" />
	<line x1="510.000" x2="480.000" y1="51.962" y2="51.962" fill="none" stroke="#665782" stroke-width="5.000" />
	<line x2="1050.000" y1="51.962" y2="51.962" fill="none" stroke="#665782" stroke-width="5.000" x1="1080.000" />
	<line fill="none" stroke="#665782" stroke-width="5.000" x1="1050.000" x2="1020.000" y1="51.962" y2="51.962" />
	<line y2="51.962" fill="none" stroke="#665782" stroke-width="5.000" x1="1260.000" x2="1230.000" y1="51.962" />
	<line y2="51.962" fill="none" stroke="#665782" stroke-width="5.000" x1="1350.000" x2="1320.000" y1="51.962" />
	<line stroke-width="5.000" x1="1470.000" x2="1440.000" y1="51.962" y2="51.962" fill="none" stroke="#665782" />
	<line x1="60.000" x2="30.000" y1="0.000" y2="0.000" fill="none" stroke="#665782" stroke-width="5.000" />
	<line stroke-width="5.000" x1="75.000" x2="60.000" y1="25.981" y2="0.000" fill="none" stroke="#665782" />
	<line x2="60.000" y1="51.962" y2="51.962" fill="none" stroke="#665782" stroke-width="5.000" x1="90.000" />
	<line fill="none" stroke="#665782" stroke-width="5.000" x1="330.000" x2="300.000" y1="51.962" y2="51.962" />
	<line x2="960.000" y1="51.962" y2="51.962" fill="none" stroke="#665782" stroke-width="5.000" x1="990.000" />
	<line y1="51.962" y2="51.962" fill="none" stroke="#665782" stroke-width="5.000" x1="1020.000" x2="990.000" />
	<line stroke="#665782" stroke-width="5.000" x1="1800.000" x2="1770.000" y1="51.962" y2="51.962" fill="none" />
	<line stroke-width="5.000" x1="1815.000" x2="1800.000" y1="77.942" y2="51.962" fill="none" stroke="#665782" />
	<line stroke-width="5.000" x1="600.000" x2="570.000" y1="51.962" y2="51.962" fill="none" stroke="#665782" />
	<line x1="960.000" x2="930.000" y1="51.962" y2="51.962" fill="none" stroke="#665782" stroke-width="5.000" />
	<line stroke="#665782" stroke-width="5.000" x1="1320.000" x2="1290.000" y1="51.962" y2="51.962" fill="none" />
	<line stroke-width="5.000" x1="1500.000" x2="1470.000" y1="51.962" y2="51.962" fill="none" stroke="#665782" />
	<line stroke="#665782" stroke-width="5.000" x1="450.000" x2="420.000" y1="51.962" y2="51.962" fill="none" />
	<line x2="1260.000" y1="51.962" y2="51.962" fill="none" stroke="#665782" stroke-width="5.000" x1="1290.000" />
	<line x1="150.000" x2="120.000" y1="51.962" y2="51.962" fill="none" stroke="#665782" stroke-width="5.000" />
	<line stroke="#665782" stroke-width="5.000" x1="270.000" x2="240.000" y1="51.962" y2="51.962" fill="none" />
	<line y1="51.962" y2="51.962" fill="none" stroke="#665782" stroke-width="5.000" x1="750.000" x2="720.000" />
	<line x1="1380.000" x2="1350.000" y1="51.962" y2="51.962" fill="none" stroke="#665782" stroke-width="5.000" />
	<line y2="51.962" fill="none" stroke="#665782" stroke-width="5.000" x1="1650.000" x2="1620.000" y1="51.962" />
	<line stroke-width="5.000" x1="1695.000" x2="1710.000" y1="129.904" y2="103.923" fill="none" stroke="#665782" />
	<line stroke-width="5.000" x1="1680.000" x2="1695.000" y1="103.923" y2="129.904" fill="none" stroke="#665782" />
	<line y2="103.923" fill="none" stroke="#665782" stroke-width="5.000" x1="1665.000" x2="1680.000" y1="77.942" />
	<line y1="51.962" y2="51.962" fill="none" stroke="#665782" stroke-width="5.000" x1="390.000" x2="360.000" />
	<line y1="51.962" y2="51.962" fill="none" stroke="#665782" stroke-width="5.000" x1="720.000" x2="690.000" />
	<line stroke-width="5.000" x1="900.000" x2="870.000" y1="51.962" y2="51.962" fill="none" stroke="#665782" />
	<line stroke-width="5.000" x1="1110.000" x2="1080.000" y1="51.962" y2="51.962" fill="none" stroke="#665782" />
	<line stroke="#665782" stroke-width="5.000" x1="15.000" x2="45.000" y1="25.981" y2="25.981" fill="none" />
	<line y1="51.962" y2="51.962" fill="none" stroke="#665782" stroke-width="5.000" x1="30.000" x2="0.000" />
	<line y2="51.962" fill="none" stroke="#665782" stroke-width="5.000" x1="930.000" x2="900.000" y1="51.962" />
	<line y1="51.962" y2="51.962" fill="none" stroke="#665782" stroke-width="5.000" x1="1440.000" x2="1410.000" />
	<line stroke-width="5.000" x1="1230.000" x2="1200.000" y1="51.962" y2="51.962" fill="none" stroke="#665782" />
	<line x1="1590.000" x2="1560.000" y1="51.962" y2="51.962" fill="none" stroke="#665782" stroke-width="5.000" />
	<line x1="420.000" x2="390.000" y1="51.962" y2="51.962" fill="none" stroke="#665782" stroke-width="5.000" />
	<line fill="none" stroke="#665782" stroke-width="5.000" x1="540.000" x2="510.000" y1="51.962" y2="51.962" />
	<line x2="540.000" y1="51.962" y2="51.962" fill="none" stroke="#665782" stroke-width="5.000" x1="570.000" />
	<line x2="1140.000" y1="51.962" y2="51.962" fill="none" stroke="#665782" stroke-width="5.000" x1="1170.000" />
	<circle cx="1170.000" cy="51.962" r="10.000" fill="#ffffff" stroke="#665782" stroke-width="2.000" />
	<text text-anchor="middle" font-family="Super Sans" font-size="8.00" fill="#000000" x="1170.000" y="55.462" >
		43
	</text>
	<circle cx="1410.000" cy="51.962" r="10.000" fill="#ffffff" stroke="#665782" stroke-width="2.000" />
	<text x="1410.000" y="55.462" text-anchor="middle" font-family="Super Sans" font-size="8.00" fill="#000000" >
		67
	</text>
	<circle stroke-width="2.000" cx="1695.000" cy="129.904" r="10.000" fill="#ffffff" stroke="#665782" />
	<text x="1695.000" y="133.404" text-anchor="middle" font-family="Super Sans" font-size="8.00" fill="#000000" >
		128
	</text>
	<circle stroke-width="2.000" cx="570.000" cy="51.962" r="10.000" fill="#ffffff" stroke="#665782" />
	<text text-anchor="middle" font-family="Super Sans" font-size="8.00" fill="#000000" x="570.000" y="55.462" >
		115
	</text>
	<circle cx="1230.000" cy="51.962" r="10.000" fill="#ffffff" stroke="#665782" stroke-width="2.000" />
	<text y="55.462" text-anchor="middle" font-family="Super Sans" font-size="8.00" fill="#000000" x="1230.000" >
		49
	</text>
	<circle fill="#ffffff" stroke="#665782" stroke-width="2.000" cx="1665.000" cy="129.904" r="10.000" />
	<text font-family="Super Sans" font-size="8.00" fill="#000000" x="1665.000" y="133.404" text-anchor="middle" >
		132
	</text>
	<circle fill="#ffffff" stroke="#665782" stroke-width="2.000" cx="720.000" cy="51.962" r="10.000" />
	<text fill="#000000" x="720.000" y="55.462" text-anchor="middle" font-family="Super Sans" font-size="8.00" >
		132
	</text>
	<circle cx="930.000" cy="51.962" r="10.000" fill="#ffffff" stroke="#665782" stroke-width="2.000" />
	<text x="930.000" y="55.462" text-anchor="middle" font-family="Super Sans" font-size="8.00" fill="#000000" >
		23
	</text>
	<circle fill="#ffffff" stroke="#665782" stroke-width="2.000" cx="1815.000" cy="77.942" r="10.000" />
	<text x="1815.000" y="81.442" text-anchor="middle" font-family="Super Sans" font-size="8.00" fill="#000000" >
		122
	</text>
	<circle cx="150.000" cy="51.962" r="10.000" fill="#ffffff" stroke="#665782" stroke-width="2.000" />
	<text font-size="8.00" fill="#000000" x="150.000" y="55.462" text-anchor="middle" font-family="Super Sans" >
		77
	</text>
	<circle cx="1650.000" cy="51.962" r="10.000" fill="#ffffff" stroke="#665782" stroke-width="2.000" />
	<text x="1650.000" y="55.462" text-anchor="middle" font-family="Super Sans" font-size="8.00" fill="#000000" >
		91
	</text>
	<circle cx="1770.000" cy="51.962" r="10.000" fill="#ffffff" stroke="#665782" stroke-width="2.000" />
	<text y="55.462" text-anchor="middle" font-family="Super Sans" font-size="8.00" fill="#000000" x="1770.000" >
		109
	</text>
	<circle r="10.000" fill="#ffffff" stroke="#665782" stroke-width="2.000" cx="1725.000" cy="77.942" />
	<text font-size="8.00" fill="#000000" x="1725.000" y="81.442" text-anchor="middle" font-family="Super Sans" >
		125
	</text>
	<circle stroke="#665782" stroke-width="2.000" cx="1020.000" cy="51.962" r="10.000" fill="#ffffff" />
	<text x="1020.000" y="55.462" text-anchor="middle" font-family="Super Sans" font-size="8.00" fill="#000000" >
		30
	</text>
	<circle cx="90.000" cy="51.962" r="10.000" fill="#ffffff" stroke="#665782" stroke-width="2.000" />
	<text font-family="Super Sans" font-size="8.00" fill="#000000" x="90.000" y="55.462" text-anchor="middle" >
		67
	</text>
	<circle r="10.000" fill="#ffffff" stroke="#665782" stroke-width="2.000" cx="960.000" cy="51.962" />
	<text x="960.000" y="55.462" text-anchor="middle" font-family="Super Sans" font-size="8.00" fill="#000000" >
		24
	</text>
	<circle r="10.000" fill="#ffffff" stroke="#665782" stroke-width="2.000" cx="390.000" cy="51.962" />
	<text x="390.000" y="55.462" text-anchor="middle" font-family="Super Sans" font-size="8.00" fill="#000000" >
		97
	</text>
	<circle cx="900.000" cy="51.962" r="10.000" fill="#ffffff" stroke="#665782" stroke-width="2.000" />
	<text x="900.000" y="55.462" text-anchor="middle" font-family="Super Sans" font-size="8.00" fill="#000000" >
		22
	</text>
	<circle r="10.000" fill="#ffffff" stroke="#665782" stroke-width="2.000" cx="870.000" cy="51.962" />
	<text x="870.000" y="55.462" text-anchor="middle" font-family="Super Sans" font-size="8.00" fill="#000000" >
		13
	</text>
	<circle cy="51.962" r="10.000" fill="#ffffff" stroke="#665782" stroke-width="2.000" cx="1500.000" />
	<text x="1500.000" y="55.462" text-anchor="middle" font-family="Super Sans" font-size="8.00" fill="#000000" >
		78
	</text>
	<circle cx="1290.000" cy="51.962" r="10.000" fill="#ffffff" stroke="#665782" stroke-width="2.000" />
	<text text-anchor="middle" font-family="Super Sans" font-size="8.00" fill="#000000" x="1290.000" y="55.462" >
		55
	</text>
	<circle r="10.000" fill="#ffffff" stroke="#665782" stroke-width="2.000" cx="210.000" cy="51.962" />
	<text font-size="8.00" fill="#000000" x="210.000" y="55.462" text-anchor="middle" font-family="Super Sans" >
		79
	</text>
	<circle r="10.000" fill="#ffffff" stroke="#665782" stroke-width="2.000" cx="1200.000" cy="51.962" />
	<text x="1200.000" y="55.462" text-anchor="middle" font-family="Super Sans" font-size="8.00" fill="#000000" >
		48
	</text>
	<circle cx="1710.000" cy="51.962" r="10.000" fill="#ffffff" stroke="#665782" stroke-width="2.000" />
	<text x="1710.000" y="55.462" text-anchor="middle" font-family="Super Sans" font-size="8.00" fill="#000000" >
		97
	</text>
	<circle r="10.000" fill="#ffffff" stroke="#665782" stroke-width="2.000" cx="600.000" cy="51.962" />
	<text fill="#000000" x="600.000" y="55.462" text-anchor="middle" font-family="Super Sans" font-size="8.00" >
		120
	</text>
	<circle stroke="#665782" stroke-width="2.000" cx="450.000" cy="51.962" r="10.000" fill="#ffffff" />
	<text font-size="8.00" fill="#000000" x="450.000" y="55.462" text-anchor="middle" font-family="Super Sans" >
		103
	</text>
	<circle cx="300.000" cy="51.962" r="10.000" fill="#ffffff" stroke="#665782" stroke-width="2.000" />
	<text x="300.000" y="55.462" text-anchor="middle" font-family="Super Sans" font-size="8.00" fill="#000000" >
		90
	</text>
	<circle stroke="#665782" stroke-width="2.000" cx="1080.000" cy="51.962" r="10.000" fill="#ffffff" />
	<text x="1080.000" y="55.462" text-anchor="middle" font-family="Super Sans" font-size="8.00" fill="#000000" >
		36
	</text>
	<circle r="10.000" fill="#ffffff" stroke="#665782" stroke-width="2.000" cx="1800.000" cy="51.962" />
	<text font-family="Super Sans" font-size="8.00" fill="#000000" x="1800.000" y="55.462" text-anchor="middle" >
		120
	</text>
	<circle cx="1695.000" cy="77.942" r="10.000" fill="#ffffff" stroke="#665782" stroke-width="2.000" />
	<text text-anchor="middle" font-family="Super Sans" font-size="8.00" fill="#000000" x="1695.000" y="81.442" >
		126
	</text>
	<circle stroke-width="2.000" cx="1560.000" cy="51.962" r="10.000" fill="#ffffff" stroke="#665782" />
	<text fill="#000000" x="1560.000" y="55.462" text-anchor="middle" font-family="Super Sans" font-size="8.00" >
		88
	</text>
	<circle cx="1680.000" cy="51.962" r="10.000" fill="#ffffff" stroke="#665782" stroke-width="2.000" />
	<text fill="#000000" x="1680.000" y="55.462" text-anchor="middle" font-family="Super Sans" font-size="8.00" >
		96
	</text>
	<circle cy="25.981" r="10.000" fill="#ffffff" stroke="#665782" stroke-width="2.000" cx="75.000" />
	<text x="75.000" y="29.481" text-anchor="middle" font-family="Super Sans" font-size="8.00" fill="#000000" >
		61
	</text>
	<circle stroke="#665782" stroke-width="2.000" cx="480.000" cy="51.962" r="10.000" fill="#ffffff" />
	<text x="480.000" y="55.462" text-anchor="middle" font-family="Super Sans" font-size="8.00" fill="#000000" >
		108
	</text>
	<circle cy="51.962" r="10.000" fill="#ffffff" stroke="#665782" stroke-width="2.000" cx="1140.000" />
	<text x="1140.000" y="55.462" text-anchor="middle" font-family="Super Sans" font-size="8.00" fill="#000000" >
		42
	</text>
	<circle cy="51.962" r="10.000" fill="#ffffff" stroke="#665782" stroke-width="2.000" cx="1350.000" />
	<text font-family="Super Sans" font-size="8.00" fill="#000000" x="1350.000" y="55.462" text-anchor="middle" >
		65
	</text>
	<circle fill="#ffffff" stroke="#665782" stroke-width="2.000" cx="1470.000" cy="51.962" r="10.000" />
	<text y="55.462" text-anchor="middle" font-family="Super Sans" font-size="8.00" fill="#000000" x="1470.000" >
		77
	</text>
	<circle r="10.000" fill="#ffffff" stroke="#665782" stroke-width="2.000" cx="270.000" cy="51.962" />
	<text fill="#000000" x="270.000" y="55.462" text-anchor="middle" font-family="Super Sans" font-size="8.00" >
		89
	</text>
	<circle cx="1785.000" cy="77.942" r="10.000" fill="#ffffff" stroke="#665782" stroke-width="2.000" />
	<text font-family="Super Sans" font-size="8.00" fill="#000000" x="1785.000" y="81.442" text-anchor="middle" >
		123
	</text>
	<circle stroke="#665782" stroke-width="2.000" cx="360.000" cy="51.962" r="10.000" fill="#ffffff" />
	<text x="360.000" y="55.462" text-anchor="middle" font-family="Super Sans" font-size="8.00" fill="#000000" >
		96
	</text>
	<circle cx="1650.000" cy="103.923" r="10.000" fill="#ffffff" stroke="#665782" stroke-width="2.000" />
	<text y="107.423" text-anchor="middle" font-family="Super Sans" font-size="8.00" fill="#000000" x="1650.000" >
		131
	</text>
	<circle cx="510.000" cy="51.962" r="10.000" fill="#ffffff" stroke="#665782" stroke-width="2.000" />
	<text x="510.000" y="55.462" text-anchor="middle" font-family="Super Sans" font-size="8.00" fill="#000000" >
		109
	</text>
	<circle fill="#ffffff" stroke="#665782" stroke-width="2.000" cx="1320.000" cy="51.962" r="10.000" />
	<text font-family="Super Sans" font-size="8.00" fill="#000000" x="1320.000" y="55.462" text-anchor="middle" >
		64
	</text>
	<circle stroke-width="2.000" cx="750.000" cy="51.962" r="10.000" fill="#ffffff" stroke="#665782" />
	<text font-size="8.00" fill="#000000" x="750.000" y="55.462" text-anchor="middle" font-family="Super Sans" >
		1
	</text>
	<circle cx="0.000" cy="0.000" r="10.000" fill="#ffffff" stroke="#665782" stroke-width="2.000" />
	<text x="0.000" y="3.500" text-anchor="middle" font-family="Super Sans" font-size="8.00" fill="#000000" >
		58
	</text>
	<circle fill="#ffffff" stroke="#665782" stroke-width="2.000" cx="1530.000" cy="51.962" r="10.000" />
	<text x="1530.000" y="55.462" text-anchor="middle" font-family="Super Sans" font-size="8.00" fill="#000000" >
		79
	</text>
	<circle stroke="#665782" stroke-width="2.000" cx="180.000" cy="51.962" r="10.000" fill="#ffffff" />
	<text x="180.000" y="55.462" text-anchor="middle" font-family="Super Sans" font-size="8.00" fill="#000000" >
		78
	</text>
	<circle cx="240.000" cy="51.962" r="10.000" fill="#ffffff" stroke="#665782" stroke-width="2.000" />
	<text font-size="8.00" fill="#000000" x="240.000" y="55.462" text-anchor="middle" font-family="Super Sans" >
		88
	</text>
	<circle stroke="#665782" stroke-width="2.000" cx="1680.000" cy="103.923" r="10.000" fill="#ffffff" />
	<text y="107.423" text-anchor="middle" font-family="Super Sans" font-size="8.00" fill="#000000" x="1680.000" >
		129
	</text>
	<circle stroke-width="2.000" cx="1440.000" cy="51.962" r="10.000" fill="#ffffff" stroke="#665782" />
	<text text-anchor="middle" font-family="Super Sans" font-size="8.00" fill="#000000" x="1440.000" y="55.462" >
		76
	</text>
	<circle r="10.000" fill="#ffffff" stroke="#665782" stroke-width="2.000" cx="420.000" cy="51.962" />
	<text font-family="Super Sans" font-size="8.00" fill="#000000" x="420.000" y="55.462" text-anchor="middle" >
		102
	</text>
	<circle cx="690.000" cy="51.962" r="10.000" fill="#ffffff" stroke="#665782" stroke-width="2.000" />
	<text fill="#000000" x="690.000" y="55.462" text-anchor="middle" font-family="Super Sans" font-size="8.00" >
		127
	</text>
	<circle stroke="#665782" stroke-width="2.000" cx="780.000" cy="51.962" r="10.000" fill="#ffffff" />
	<text x="780.000" y="55.462" text-anchor="middle" font-family="Super Sans" font-size="8.00" fill="#000000" >
		10
	</text>
	<circle cx="60.000" cy="0.000" r="10.000" fill="#ffffff" stroke="#665782" stroke-width="2.000" />
	<text font-family="Super Sans" font-size="8.00" fill="#000000" x="60.000" y="3.500" text-anchor="middle" >
		60
	</text>
	<circle cx="840.000" cy="51.962" r="10.000" fill="#ffffff" stroke="#665782" stroke-width="2.000" />
	<text y="55.462" text-anchor="middle" font-family="Super Sans" font-size="8.00" fill="#000000" x="840.000" >
		12
	</text>
	<circle stroke="#665782" stroke-width="2.000" cx="1050.000" cy="51.962" r="10.000" fill="#ffffff" />
	<text fill="#000000" x="1050.000" y="55.462" text-anchor="middle" font-family="Super Sans" font-size="8.00" >
		31
	</text>
	<circle cx="30.000" cy="51.962" r="10.000" fill="#ffffff" stroke="#665782" stroke-width="2.000" />
	<text x="30.000" y="55.462" text-anchor="middle" font-family="Super Sans" font-size="8.00" fill="#000000" >
		65
	</text>
	<circle cx="1590.000" cy="51.962" r="10.000" fill="#ffffff" stroke="#665782" stroke-width="2.000" />
	<text x="1590.000" y="55.462" text-anchor="middle" font-family="Super Sans" font-size="8.00" fill="#000000" >
		89
	</text>
	<circle stroke="#665782" stroke-width="2.000" cx="540.000" cy="51.962" r="10.000" fill="#ffffff" />
	<text fill="#000000" x="540.000" y="55.462" text-anchor="middle" font-family="Super Sans" font-size="8.00" >
		114
	</text>
	<circle cx="630.000" cy="51.962" r="10.000" fill="#ffffff" stroke="#665782" stroke-width="2.000" />
	<text x="630.000" y="55.462" text-anchor="middle" font-family="Super Sans" font-size="8.00" fill="#000000" >
		121
	</text>
	<circle r="10.000" fill="#ffffff" stroke="#665782" stroke-width="2.000" cx="1710.000" cy="103.923" />
	<text y="107.423" text-anchor="middle" font-family="Super Sans" font-size="8.00" fill="#000000" x="1710.000" >
		127
	</text>
	<circle cx="1740.000" cy="51.962" r="10.000" fill="#ffffff" stroke="#665782" stroke-width="2.000" />
	<text x="1740.000" y="55.462" text-anchor="middle" font-family="Super Sans" font-size="8.00" fill="#000000" >
		108
	</text>
	<circle r="10.000" fill="#ffffff" stroke="#665782" stroke-width="2.000" cx="330.000" cy="51.962" />
	<text font-size="8.00" fill="#000000" x="330.000" y="55.462" text-anchor="middle" font-family="Super Sans" >
		91
	</text>
	<circle cy="51.962" r="10.000" fill="#ffffff" stroke="#665782" stroke-width="2.000" cx="1380.000" />
	<text font-family="Super Sans" font-size="8.00" fill="#000000" x="1380.000" y="55.462" text-anchor="middle" >
		66
	</text>
	<circle fill="#ffffff" stroke="#665782" stroke-width="2.000" cx="30.000" cy="0.000" r="10.000" />
	<text text-anchor="middle" font-family="Super Sans" font-size="8.00" fill="#000000" x="30.000" y="3.500" >
		59
	</text>
	<circle fill="#ffffff" stroke="#665782" stroke-width="2.000" cx="660.000" cy="51.962" r="10.000" />
	<text x="660.000" y="55.462" text-anchor="middle" font-family="Super Sans" font-size="8.00" fill="#000000" >
		126
	</text>
	<circle cy="51.962" r="10.000" fill="#ffffff" stroke="#665782" stroke-width="2.000" cx="1260.000" />
	<text font-family="Super Sans" font-size="8.00" fill="#000000" x="1260.000" y="55.462" text-anchor="middle" >
		54
	</text>
	<circle cx="15.000" cy="25.981" r="10.000" fill="#ffffff" stroke="#665782" stroke-width="2.000" />
	<text font-family="Super Sans" font-size="8.00" fill="#000000" x="15.000" y="29.481" text-anchor="middle" >
		63
	</text>
	<circle r="10.000" fill="#ffffff" stroke="#665782" stroke-width="2.000" cx="0.000" cy="51.962" />
	<text x="0.000" y="55.462" text-anchor="middle" font-family="Super Sans" font-size="8.00" fill="#000000" >
		64
	</text>
	<circle stroke-width="2.000" cx="1665.000" cy="77.942" r="10.000" fill="#ffffff" stroke="#665782" />
	<text x="1665.000" y="81.442" text-anchor="middle" font-family="Super Sans" font-size="8.00" fill="#000000" >
		130
	</text>
	<circle cx="1110.000" cy="51.962" r="10.000" fill="#ffffff" stroke="#665782" stroke-width="2.000" />
	<text y="55.462" text-anchor="middle" font-family="Super Sans" font-size="8.00" fill="#000000" x="1110.000" >
		37
	</text>
	<circle stroke-width="2.000" cx="120.000" cy="51.962" r="10.000" fill="#ffffff" stroke="#665782" />
	<text x="120.000" y="55.462" text-anchor="middle" font-family="Super Sans" font-size="8.00" fill="#000000" >
		76
	</text>
	<circle stroke="#665782" stroke-width="2.000" cx="1620.000" cy="51.962" r="10.000" fill="#ffffff" />
	<text y="55.462" text-anchor="middle" font-family="Super Sans" font-size="8.00" fill="#000000" x="1620.000" >
		90
	</text>
	<circle stroke-width="2.000" cx="1755.000" cy="77.942" r="10.000" fill="#ffffff" stroke="#665782" />
	<text y="81.442" text-anchor="middle" font-family="Super Sans" font-size="8.00" fill="#000000" x="1755.000" >
		124
	</text>
	<circle cx="990.000" cy="51.962" r="10.000" fill="#ffffff" stroke="#665782" stroke-width="2.000" />
	<text y="55.462" text-anchor="middle" font-family="Super Sans" font-size="8.00" fill="#000000" x="990.000" >
		25
	</text>
	<circle cx="45.000" cy="25.981" r="10.000" fill="#ffffff" stroke="#665782" stroke-width="2.000" />
	<text font-family="Super Sans" font-size="8.00" fill="#000000" x="45.000" y="29.481" text-anchor="middle" >
		62
	</text>
	<circle cx="60.000" cy="51.962" r="10.000" fill="#ffffff" stroke="#665782" stroke-width="2.000" />
	<text font-family="Super Sans" font-size="8.00" fill="#000000" x="60.000" y="55.462" text-anchor="middle" >
		66
	</text>
	<circle cx="810.000" cy="51.962" r="10.000" fill="#ffffff" stroke="#665782" stroke-width="2.000" />
	<text x="810.000" y="55.462" text-anchor="middle" font-family="Super Sans" font-size="8.00" fill="#000000" >
		11
	</text>
</svg>
