<svg xmlns="http://www.w3.org/2000/svg" viewBox="-180 -20 2010 260" >
	<line y1="51.962" y2="51.962" fill="none" stroke="#665782" stroke-width="5.000" x1="1200.000" x2="1170.000" />
	<line stroke-width="5.000" x1="690.000" x2="660.000" y1="51.962" y2="51.962" fill="none" stroke="#665782" />
	<line fill="none" stroke="#665782" stroke-width="5.000" x1="960.000" x2="930.000" y1="51.962" y2="51.962" />
	<line x1="540.000" x2="510.000" y1="51.962" y2="51.962" fill="none" stroke="#665782" stroke-width="5.000" />
	<line x1="1620.000" x2="1590.000" y1="51.962" y2="51.962" fill="none" stroke="#665782" stroke-width="5.000" />
	<line x1="1650.000" x2="1665.000" y1="103.923" y2="77.942" fill="none" stroke="#665782" stroke-width="5.000" />
	<line fill="none" stroke="#665782" stroke-width="5.000" x1="1665.000" x2="1650.000" y1="129.904" y2="103.923" />
	<line stroke-width="5.000" x1="1650.000" x2="1620.000" y1="51.962" y2="51.962" fill="none" stroke="#665782" />
	<line y2="103.923" fill="none" stroke="#665782" stroke-width="5.000" x1="1695.000" x2="1710.000" y1="129.904" />
	<line x1="1680.000" x2="1695.000" y1="103.923" y2="129.904" fill="none" stroke="#665782" stroke-width="5.000" />
	<line x1="1665.000" x2="1680.000" y1="77.942" y2="103.923" fill="none" stroke="#665782" stroke-width="5.000" />
	<line x2="720.000" y1="51.962" y2="51.962" fill="none" stroke="#665782" stroke-width="5.000" x1="750.000" />
	<line y1="51.962" y2="51.962" fill="none" stroke="#665782" stroke-width="5.000" x1="840.000" x2="810.000" />
	<line stroke="#665782" stroke-width="5.000" x1="870.000" x2="840.000" y1="51.962" y2="51.962" fill="none" />
	<line x1="1110.000" x2="1080.000" y1="51.962" y2="51.962" fill="none" stroke="#665782" stroke-width="5.000" />
	<line x2="1710.000" y1="51.962" y2="51.962" fill="none" stroke="#665782" stroke-width="5.000" x1="1740.000" />
	<line x1="1755.000" x2="1785.000" y1="77.942" y2="77.942" fill="none" stroke="#665782" stroke-width="5.000" />
	<line stroke-width="5.000" x1="360.000" x2="330.000" y1="51.962" y2="51.962" fill="none" stroke="#665782" />
	<line x1="600.000" x2="570.000" y1="51.962" y2="51.962" fill="none" stroke="#665782" stroke-width="5.000" />
	<line stroke-width="5.000" x1="1170.000" x2="1140.000" y1="51.962" y2="51.962" fill="none" stroke="#665782" />
	<line stroke="#665782" stroke-width="5.000" x1="1560.000" x2="1530.000" y1="51.962" y2="51.962" fill="none" />
	<line y1="25.981" y2="25.981" fill="none" stroke="#665782" stroke-width="5.000" x1="15.000" x2="45.000" />
	<line y1="51.962" y2="51.962" fill="none" stroke="#665782" stroke-width="5.000" x1="30.000" x2="0.000" />
	<line stroke="#665782" stroke-width="5.000" x1="630.000" x2="600.000" y1="51.962" y2="51.962" fill="none" />
	<line fill="none" stroke="#665782" stroke-width="5.000" x1="1410.000" x2="1380.000" y1="51.962" y2="51.962" />
	<line stroke-width="5.000" x1="1440.000" x2="1410.000" y1="51.962" y2="51.962" fill="none" stroke="#665782" />
	<line y1="0.000" y2="0.000" fill="none" stroke="#665782" stroke-width="5.000" x1="30.000" x2="0.000" />
	<line stroke-width="5.000" x1="45.000" x2="75.000" y1="25.981" y2="25.981" fill="none" stroke="#665782" />
	<line fill="none" stroke="#665782" stroke-width="5.000" x1="60.000" x2="30.000" y1="51.962" y2="51.962" />
	<line stroke="#665782" stroke-width="5.000" x1="0.000" x2="15.000" y1="51.962" y2="25.981" fill="none" />
	<line y1="51.962" y2="51.962" fill="none" stroke="#665782" stroke-width="5.000" x1="510.000" x2="480.000" />
	<line y2="51.962" fill="none" stroke="#665782" stroke-width="5.000" x1="1020.000" x2="990.000" y1="51.962" />
	<line fill="none" stroke="#665782" stroke-width="5.000" x1="1470.000" x2="1440.000" y1="51.962" y2="51.962" />
	<line x1="450.000" x2="420.000" y1="51.962" y2="51.962" fill="none" stroke="#665782" stroke-width="5.000" />
	<line x1="570.000" x2="540.000" y1="51.962" y2="51.962" fill="none" stroke="#665782" stroke-width="5.000" />
	<line fill="none" stroke="#665782" stroke-width="5.000" x1="1050.000" x2="1020.000" y1="51.962" y2="51.962" />
	<line fill="none" stroke="#665782" stroke-width="5.000" x1="1080.000" x2="1050.000" y1="51.962" y2="51.962" />
	<line fill="none" stroke="#665782" stroke-width="5.000" x1="1380.000" x2="1350.000" y1="51.962" y2="51.962" />
	<line x1="1770.000" x2="1740.000" y1="51.962" y2="51.962" fill="none" stroke="#665782" stroke-width="5.000" />
	<line stroke-width="5.000" x1="1785.000" x2="1815.000" y1="77.942" y2="77.942" fill="none" stroke="#665782" />
	<line y1="51.962" y2="51.962" fill="none" stroke="#665782" stroke-width="5.000" x1="120.000" x2="90.000" />
	<line y2="51.962" fill="none" stroke="#665782" stroke-width="5.000" x1="210.000" x2="180.000" y1="51.962" />
	<line y1="51.962" y2="51.962" fill="none" stroke="#665782" stroke-width="5.000" x1="270.000" x2="240.000" />
	<line stroke-width="5.000" x1="930.000" x2="900.000" y1="51.962" y2="51.962" fill="none" stroke="#665782" />
	<line y2="51.962" fill="none" stroke="#665782" stroke-width="5.000" x1="1140.000" x2="1110.000" y1="51.962" />
	<line y2="77.942" fill="none" stroke="#665782" stroke-width="5.000" x1="1725.000" x2="1755.000" y1="77.942" />
	<line x2="1680.000" y1="51.962" y2="51.962" fill="none" stroke="#665782" stroke-width="5.000" x1="1710.000" />
	<line x1="1290.000" x2="1260.000" y1="51.962" y2="51.962" fill="none" stroke="#665782" stroke-width="5.000" />
	<line y2="51.962" fill="none" stroke="#665782" stroke-width="5.000" x1="1590.000" x2="1560.000" y1="51.962" />
	<line fill="none" stroke="#665782" stroke-width="5.000" x1="480.000" x2="450.000" y1="51.962" y2="51.962" />
	<line stroke="#665782" stroke-width="5.000" x1="1320.000" x2="1290.000" y1="51.962" y2="51.962" fill="none" />
	<line x1="1500.000" x2="1470.000" y1="51.962" y2="51.962" fill="none" stroke="#665782" stroke-width="5.000" />
	<line x1="240.000" x2="210.000" y1="51.962" y2="51.962" fill="none" stroke="#665782" stroke-width="5.000" />
	<line fill="none" stroke="#665782" stroke-width="5.000" x1="390.000" x2="360.000" y1="51.962" y2="51.962" />
	<line x2="630.000" y1="51.962" y2="51.962" fill="none" stroke="#665782" stroke-width="5.000" x1="660.000" />
	<line y1="51.962" y2="51.962" fill="none" stroke="#665782" stroke-width="5.000" x1="1530.000" x2="1500.000" />
	<line stroke-width="5.000" x1="810.000" x2="780.000" y1="51.962" y2="51.962" fill="none" stroke="#665782" />
	<line y1="51.962" y2="51.962" fill="none" stroke="#665782" stroke-width="5.000" x1="1260.000" x2="1230.000" />
	<line y2="0.000" fill="none" stroke="#665782" stroke-width="5.000" x1="60.000" x2="30.000" y1="0.000" />
	<line stroke="#665782" stroke-width="5.000" x1="75.000" x2="60.000" y1="25.981" y2="0.000" fill="none" />
	<line y1="51.962" y2="51.962" fill="none" stroke="#665782" stroke-width="5.000" x1="90.000" x2="60.000" />
	<line x1="150.000" x2="120.000" y1="51.962" y2="51.962" fill="none" stroke="#665782" stroke-width="5.000" />
	<line y2="51.962" fill="none" stroke="#665782" stroke-width="5.000" x1="180.000" x2="150.000" y1="51.962" />
	<line x1="300.000" x2="270.000" y1="51.962" y2="51.962" fill="none" stroke="#665782" stroke-width="5.000" />
	<line stroke="#665782" stroke-width="5.000" x1="420.000" x2="390.000" y1="51.962" y2="51.962" fill="none" />
	<line stroke="#665782" stroke-width="5.000" x1="720.000" x2="690.000" y1="51.962" y2="51.962" fill="none" />
	<line fill="none" stroke="#665782" stroke-width="5.000" x1="1350.000" x2="1320.000" y1="51.962" y2="51.962" />
	<line y2="51.962" fill="none" stroke="#665782" stroke-width="5.000" x1="780.000" x2="750.000" y1="51.962" />
	<line x1="330.000" x2="300.000" y1="51.962" y2="51.962" fill="none" stroke="#665782" stroke-width="5.000" />
	<line stroke="#665782" stroke-width="5.000" x1="900.000" x2="870.000" y1="51.962" y2="51.962" fill="none" />
	<line x2="960.000" y1="51.962" y2="51.962" fill="none" stroke="#665782" stroke-width="5.000" x1="990.000" />
	<line fill="none" stroke="#665782" stroke-width="5.000" x1="1230.000" x2="1200.000" y1="51.962" y2="51.962" />
	<line x1="1680.000" x2="1650.000" y1="51.962" y2="51.962" fill="none" stroke="#665782" stroke-width="5.000" />
	<line x1="1695.000" x2="1725.000" y1="77.942" y2="77.942" fill="none" stroke="#665782" stroke-width="5.000" />
	<line x1="1710.000" x2="1695.000" y1="103.923" y2="77.942" fill="none" stroke="#665782" stroke-width="5.000" />
	<line y1="51.962" y2="51.962" fill="none" stroke="#665782" stroke-width="5.000" x1="1800.000" x2="1770.000" />
	<line stroke="#665782" stroke-width="5.000" x1="1815.000" x2="1800.000" y1="77.942" y2="51.962" fill="none" />
	<line x1="1635.000" x2="1665.000" y1="129.904" y2="129.904" fill="none" stroke="#b8ed8e" stroke-width="5.000" />
	<line y2="129.904" fill="none" stroke="#b8ed8e" stroke-width="5.000" x1="1620.000" x2="1635.000" y1="103.923" />
	<line stroke="#b8ed8e" stroke-width="5.000" x1="1635.000" x2="1620.000" y1="77.942" y2="103.923" fill="none" />
	<line stroke="#90d1c2" stroke-width="1.500" x1="1635.000" x2="1650.000" y1="77.942" y2="51.962" fill="none" />
	<line x1="1635.000" x2="1665.000" y1="77.942" y2="77.942" fill="none" stroke="#90d1c2" stroke-width="1.500" />
	<line fill="none" stroke="#90d1c2" stroke-width="1.500" x1="1635.000" x2="1650.000" y1="77.942" y2="103.923" />
	<line stroke="#b8ed8e" stroke-width="5.000" x1="1605.000" x2="1635.000" y1="77.942" y2="77.942" fill="none" />
	<line fill="none" stroke="#b8ed8e" stroke-width="5.000" x1="1590.000" x2="1605.000" y1="103.923" y2="77.942" />
	<line stroke="#b8ed8e" stroke-width="5.000" x1="1605.000" x2="1590.000" y1="129.904" y2="103.923" fill="none" />
	<line fill="none" stroke="#90d1c2" stroke-width="1.500" x1="1605.000" x2="1635.000" y1="129.904" y2="129.904" />
	<line stroke-width="5.000" x1="1575.000" x2="1605.000" y1="129.904" y2="129.904" fill="none" stroke="#b8ed8e" />
	<line x2="1575.000" y1="103.923" y2="129.904" fill="none" stroke="#b8ed8e" stroke-width="5.000" x1="1560.000" />
	<line stroke="#90d1c2" stroke-width="1.500" x1="1560.000" x2="1590.000" y1="103.923" y2="103.923" fill="none" />
	<line x2="1560.000" y1="77.942" y2="103.923" fill="none" stroke="#b8ed8e" stroke-width="5.000" x1="1575.000" />
	<line x1="1575.000" x2="1605.000" y1="77.942" y2="77.942" fill="none" stroke="#90d1c2" stroke-width="1.500" />
	<line x1="1575.000" x2="1590.000" y1="77.942" y2="103.923" fill="none" stroke="#90d1c2" stroke-width="1.500" />
	<line stroke-width="5.000" x1="1545.000" x2="1575.000" y1="77.942" y2="77.942" fill="none" stroke="#b8ed8e" />
	<line x1="1545.000" x2="1530.000" y1="77.942" y2="51.962" fill="none" stroke="#90d1c2" stroke-width="1.500" />
	<line x1="1530.000" x2="1545.000" y1="103.923" y2="77.942" fill="none" stroke="#b8ed8e" stroke-width="5.000" />
	<line stroke="#90d1c2" stroke-width="1.500" x1="1530.000" x2="1560.000" y1="103.923" y2="103.923" fill="none" />
	<line stroke-width="5.000" x1="1545.000" x2="1530.000" y1="129.904" y2="103.923" fill="none" stroke="#b8ed8e" />
	<line y1="129.904" y2="103.923" fill="none" stroke="#90d1c2" stroke-width="1.500" x1="1545.000" x2="1560.000" />
	<line y2="129.904" fill="none" stroke="#90d1c2" stroke-width="1.500" x1="1545.000" x2="1575.000" y1="129.904" />
	<line y2="129.904" fill="none" stroke="#b8ed8e" stroke-width="5.000" x1="1515.000" x2="1545.000" y1="129.904" />
	<line x1="1500.000" x2="1515.000" y1="103.923" y2="129.904" fill="none" stroke="#b8ed8e" stroke-width="5.000" />
	<line y2="103.923" fill="none" stroke="#90d1c2" stroke-width="1.500" x1="1500.000" x2="1530.000" y1="103.923" />
	<line stroke="#b8ed8e" stroke-width="5.000" x1="1515.000" x2="1500.000" y1="77.942" y2="103.923" fill="none" />
	<line y2="77.942" fill="none" stroke="#90d1c2" stroke-width="1.500" x1="1515.000" x2="1545.000" y1="77.942" />
	<line fill="none" stroke="#90d1c2" stroke-width="1.500" x1="1515.000" x2="1530.000" y1="77.942" y2="103.923" />
	<line x2="1515.000" y1="77.942" y2="77.942" fill="none" stroke="#b8ed8e" stroke-width="5.000" x1="1485.000" />
	<line x2="1485.000" y1="103.923" y2="77.942" fill="none" stroke="#b8ed8e" stroke-width="5.000" x1="1470.000" />
	<line x1="1485.000" x2="1470.000" y1="129.904" y2="103.923" fill="none" stroke="#b8ed8e" stroke-width="5.000" />
	<line fill="none" stroke="#90d1c2" stroke-width="1.500" x1="1485.000" x2="1500.000" y1="129.904" y2="103.923" />
	<line x2="1515.000" y1="129.904" y2="129.904" fill="none" stroke="#90d1c2" stroke-width="1.500" x1="1485.000" />
	<line stroke="#b8ed8e" stroke-width="5.000" x1="1455.000" x2="1485.000" y1="129.904" y2="129.904" fill="none" />
	<line x1="1440.000" x2="1455.000" y1="103.923" y2="129.904" fill="none" stroke="#b8ed8e" stroke-width="5.000" />
	<line stroke="#90d1c2" stroke-width="1.500" x1="1440.000" x2="1470.000" y1="103.923" y2="103.923" fill="none" />
	<line x1="1455.000" x2="1440.000" y1="77.942" y2="103.923" fill="none" stroke="#b8ed8e" stroke-width="5.000" />
	<line stroke="#90d1c2" stroke-width="1.500" x1="1455.000" x2="1485.000" y1="77.942" y2="77.942" fill="none" />
	<line x1="1455.000" x2="1470.000" y1="77.942" y2="103.923" fill="none" stroke="#90d1c2" stroke-width="1.500" />
	<line stroke-width="5.000" x1="1425.000" x2="1455.000" y1="77.942" y2="77.942" fill="none" stroke="#b8ed8e" />
	<line y2="51.962" fill="none" stroke="#90d1c2" stroke-width="1.500" x1="1425.000" x2="1440.000" y1="77.942" />
	<line y1="103.923" y2="77.942" fill="none" stroke="#b8ed8e" stroke-width="5.000" x1="1410.000" x2="1425.000" />
	<line fill="none" stroke="#90d1c2" stroke-width="1.500" x1="1410.000" x2="1440.000" y1="103.923" y2="103.923" />
	<line x1="1425.000" x2="1410.000" y1="129.904" y2="103.923" fill="none" stroke="#b8ed8e" stroke-width="5.000" />
	<line stroke-width="1.500" x1="1425.000" x2="1440.000" y1="129.904" y2="103.923" fill="none" stroke="#90d1c2" />
	<line x1="1425.000" x2="1455.000" y1="129.904" y2="129.904" fill="none" stroke="#90d1c2" stroke-width="1.500" />
	<line stroke="#b8ed8e" stroke-width="5.000" x1="1395.000" x2="1425.000" y1="129.904" y2="129.904" fill="none" />
	<line y1="103.923" y2="129.904" fill="none" stroke="#b8ed8e" stroke-width="5.000" x1="1380.000" x2="1395.000" />
	<line stroke-width="1.500" x1="1380.000" x2="1410.000" y1="103.923" y2="103.923" fill="none" stroke="#90d1c2" />
	<line y2="103.923" fill="none" stroke="#b8ed8e" stroke-width="5.000" x1="1395.000" x2="1380.000" y1="77.942" />
	<line x1="1395.000" x2="1410.000" y1="77.942" y2="51.962" fill="none" stroke="#90d1c2" stroke-width="1.500" />
	<line fill="none" stroke="#90d1c2" stroke-width="1.500" x1="1395.000" x2="1425.000" y1="77.942" y2="77.942" />
	<line y2="103.923" fill="none" stroke="#90d1c2" stroke-width="1.500" x1="1395.000" x2="1410.000" y1="77.942" />
	<line y2="51.962" fill="none" stroke="#90d1c2" stroke-width="1.500" x1="1395.000" x2="1380.000" y1="77.942" />
	<line stroke="#b8ed8e" stroke-width="5.000" x1="1365.000" x2="1395.000" y1="77.942" y2="77.942" fill="none" />
	<line stroke-width="5.000" x1="1350.000" x2="1365.000" y1="103.923" y2="77.942" fill="none" stroke="#b8ed8e" />
	<line stroke-width="1.500" x1="1350.000" x2="1380.000" y1="103.923" y2="103.923" fill="none" stroke="#90d1c2" />
	<line y2="103.923" fill="none" stroke="#b8ed8e" stroke-width="5.000" x1="1365.000" x2="1350.000" y1="129.904" />
	<line x2="1380.000" y1="129.904" y2="103.923" fill="none" stroke="#90d1c2" stroke-width="1.500" x1="1365.000" />
	<line y2="129.904" fill="none" stroke="#90d1c2" stroke-width="1.500" x1="1365.000" x2="1395.000" y1="129.904" />
	<circle cy="51.962" r="10.000" fill="#ffffff" stroke="#665782" stroke-width="2.000" cx="870.000" />
	<text x="870.000" y="55.462" text-anchor="middle" font-family="Super Sans" font-size="8.00" fill="#000000" >
		13
	</text>
	<circle stroke="#665782" stroke-width="2.000" cx="510.000" cy="51.962" r="10.000" fill="#ffffff" />
	<text y="55.462" text-anchor="middle" font-family="Super Sans" font-size="8.00" fill="#000000" x="510.000" >
		109
	</text>
	<circle stroke="#665782" stroke-width="2.000" cx="1590.000" cy="51.962" r="10.000" fill="#ffffff" />
	<text x="1590.000" y="55.462" text-anchor="middle" font-family="Super Sans" font-size="8.00" fill="#000000" >
		89
	</text>
	<circle stroke-width="2.000" cx="480.000" cy="51.962" r="10.000" fill="#ffffff" stroke="#665782" />
	<text x="480.000" y="55.462" text-anchor="middle" font-family="Super Sans" font-size="8.00" fill="#000000" >
		108
	</text>
	<circle cx="390.000" cy="51.962" r="10.000" fill="#ffffff" stroke="#665782" stroke-width="2.000" />
	<text y="55.462" text-anchor="middle" font-family="Super Sans" font-size="8.00" fill="#000000" x="390.000" >
		97
	</text>
	<circle cx="990.000" cy="51.962" r="10.000" fill="#ffffff" stroke="#665782" stroke-width="2.000" />
	<text x="990.000" y="55.462" text-anchor="middle" font-family="Super Sans" font-size="8.00" fill="#000000" >
		25
	</text>
	<circle r="10.000" fill="#ffffff" stroke="#665782" stroke-width="2.000" cx="1800.000" cy="51.962" />
	<text fill="#000000" x="1800.000" y="55.462" text-anchor="middle" font-family="Super Sans" font-size="8.00" >
		120
	</text>
	<circle cx="1575.000" cy="129.904" r="10.000" fill="#ffffff" stroke="#b8ed8e" stroke-width="2.000" />
	<text text-anchor="middle" font-family="Super Sans" font-size="8.00" fill="#000000" x="1575.000" y="133.404" >
		7
	</text>
	<circle cx="1470.000" cy="103.923" r="10.000" fill="#ffffff" stroke="#b8ed8e" stroke-width="2.000" />
	<text font-size="8.00" fill="#000000" x="1470.000" y="107.423" text-anchor="middle" font-family="Super Sans" >
		17
	</text>
	<circle fill="#ffffff" stroke="#b8ed8e" stroke-width="2.000" cx="1455.000" cy="77.942" r="10.000" />
	<text fill="#000000" x="1455.000" y="81.442" text-anchor="middle" font-family="Super Sans" font-size="8.00" >
		21
	</text>
	<circle cx="0.000" cy="0.000" r="10.000" fill="#ffffff" stroke="#665782" stroke-width="2.000" />
	<text font-size="8.00" fill="#000000" x="0.000" y="3.500" text-anchor="middle" font-family="Super Sans" >
		58
	</text>
	<circle cx="1380.000" cy="51.962" r="10.000" fill="#ffffff" stroke="#665782" stroke-width="2.000" />
	<text x="1380.000" y="55.462" text-anchor="middle" font-family="Super Sans" font-size="8.00" fill="#000000" >
		66
	</text>
	<circle fill="#ffffff" stroke="#b8ed8e" stroke-width="2.000" cx="1425.000" cy="129.904" r="10.000" />
	<text fill="#000000" x="1425.000" y="133.404" text-anchor="middle" font-family="Super Sans" font-size="8.00" >
		24
	</text>
	<circle cx="0.000" cy="51.962" r="10.000" fill="#ffffff" stroke="#665782" stroke-width="2.000" />
	<text x="0.000" y="55.462" text-anchor="middle" font-family="Super Sans" font-size="8.00" fill="#000000" >
		64
	</text>
	<circle cx="780.000" cy="51.962" r="10.000" fill="#ffffff" stroke="#665782" stroke-width="2.000" />
	<text text-anchor="middle" font-family="Super Sans" font-size="8.00" fill="#000000" x="780.000" y="55.462" >
		10
	</text>
	<circle stroke="#665782" stroke-width="2.000" cx="1680.000" cy="51.962" r="10.000" fill="#ffffff" />
	<text font-family="Super Sans" font-size="8.00" fill="#000000" x="1680.000" y="55.462" text-anchor="middle" >
		96
	</text>
	<circle fill="#ffffff" stroke="#665782" stroke-width="2.000" cx="360.000" cy="51.962" r="10.000" />
	<text font-size="8.00" fill="#000000" x="360.000" y="55.462" text-anchor="middle" font-family="Super Sans" >
		96
	</text>
	<circle cx="1080.000" cy="51.962" r="10.000" fill="#ffffff" stroke="#665782" stroke-width="2.000" />
	<text fill="#000000" x="1080.000" y="55.462" text-anchor="middle" font-family="Super Sans" font-size="8.00" >
		36
	</text>
	<circle cy="51.962" r="10.000" fill="#ffffff" stroke="#665782" stroke-width="2.000" cx="120.000" />
	<text x="120.000" y="55.462" text-anchor="middle" font-family="Super Sans" font-size="8.00" fill="#000000" >
		76
	</text>
	<circle cx="1560.000" cy="103.923" r="10.000" fill="#ffffff" stroke="#b8ed8e" stroke-width="2.000" />
	<text font-family="Super Sans" font-size="8.00" fill="#000000" x="1560.000" y="107.423" text-anchor="middle" >
		8
	</text>
	<circle cx="1650.000" cy="51.962" r="10.000" fill="#ffffff" stroke="#665782" stroke-width="2.000" />
	<text font-size="8.00" fill="#000000" x="1650.000" y="55.462" text-anchor="middle" font-family="Super Sans" >
		91
	</text>
	<circle cx="1485.000" cy="129.904" r="10.000" fill="#ffffff" stroke="#b8ed8e" stroke-width="2.000" />
	<text x="1485.000" y="133.404" text-anchor="middle" font-family="Super Sans" font-size="8.00" fill="#000000" >
		18
	</text>
	<circle cx="1425.000" cy="77.942" r="10.000" fill="#ffffff" stroke="#b8ed8e" stroke-width="2.000" />
	<text y="81.442" text-anchor="middle" font-family="Super Sans" font-size="8.00" fill="#000000" x="1425.000" >
		22
	</text>
	<circle r="10.000" fill="#ffffff" stroke="#665782" stroke-width="2.000" cx="1200.000" cy="51.962" />
	<text x="1200.000" y="55.462" text-anchor="middle" font-family="Super Sans" font-size="8.00" fill="#000000" >
		48
	</text>
	<circle cy="51.962" r="10.000" fill="#ffffff" stroke="#665782" stroke-width="2.000" cx="1050.000" />
	<text font-family="Super Sans" font-size="8.00" fill="#000000" x="1050.000" y="55.462" text-anchor="middle" >
		31
	</text>
	<circle cx="1140.000" cy="51.962" r="10.000" fill="#ffffff" stroke="#665782" stroke-width="2.000" />
	<text text-anchor="middle" font-family="Super Sans" font-size="8.00" fill="#000000" x="1140.000" y="55.462" >
		42
	</text>
	<circle cx="1515.000" cy="129.904" r="10.000" fill="#ffffff" stroke="#b8ed8e" stroke-width="2.000" />
	<text font-size="8.00" fill="#000000" x="1515.000" y="133.404" text-anchor="middle" font-family="Super Sans" >
		13
	</text>
	<circle cy="129.904" r="10.000" fill="#ffffff" stroke="#b8ed8e" stroke-width="2.000" cx="1395.000" />
	<text y="133.404" text-anchor="middle" font-family="Super Sans" font-size="8.00" fill="#000000" x="1395.000" >
		25
	</text>
	<circle fill="#ffffff" stroke="#665782" stroke-width="2.000" cx="1710.000" cy="51.962" r="10.000" />
	<text x="1710.000" y="55.462" text-anchor="middle" font-family="Super Sans" font-size="8.00" fill="#000000" >
		97
	</text>
	<circle r="10.000" fill="#ffffff" stroke="#665782" stroke-width="2.000" cx="1500.000" cy="51.962" />
	<text y="55.462" text-anchor="middle" font-family="Super Sans" font-size="8.00" fill="#000000" x="1500.000" >
		78
	</text>
	<circle r="10.000" fill="#ffffff" stroke="#665782" stroke-width="2.000" cx="330.000" cy="51.962" />
	<text font-family="Super Sans" font-size="8.00" fill="#000000" x="330.000" y="55.462" text-anchor="middle" >
		91
	</text>
	<circle cx="1350.000" cy="103.923" r="10.000" fill="#ffffff" stroke="#b8ed8e" stroke-width="2.000" />
	<text font-family="Super Sans" font-size="8.00" fill="#000000" x="1350.000" y="107.423" text-anchor="middle" >
		29
	</text>
	<circle cx="1755.000" cy="77.942" r="10.000" fill="#ffffff" stroke="#665782" stroke-width="2.000" />
	<text x="1755.000" y="81.442" text-anchor="middle" font-family="Super Sans" font-size="8.00" fill="#000000" >
		124
	</text>
	<circle stroke-width="2.000" cx="1470.000" cy="51.962" r="10.000" fill="#ffffff" stroke="#665782" />
	<text font-size="8.00" fill="#000000" x="1470.000" y="55.462" text-anchor="middle" font-family="Super Sans" >
		77
	</text>
	<circle cx="570.000" cy="51.962" r="10.000" fill="#ffffff" stroke="#665782" stroke-width="2.000" />
	<text x="570.000" y="55.462" text-anchor="middle" font-family="Super Sans" font-size="8.00" fill="#000000" >
		115
	</text>
	<circle fill="#ffffff" stroke="#665782" stroke-width="2.000" cx="1710.000" cy="103.923" r="10.000" />
	<text x="1710.000" y="107.423" text-anchor="middle" font-family="Super Sans" font-size="8.00" fill="#000000" >
		127
	</text>
	<circle cx="1530.000" cy="103.923" r="10.000" fill="#ffffff" stroke="#b8ed8e" stroke-width="2.000" />
	<text x="1530.000" y="107.423" text-anchor="middle" font-family="Super Sans" font-size="8.00" fill="#000000" >
		11
	</text>
	<circle cx="1440.000" cy="103.923" r="10.000" fill="#ffffff" stroke="#b8ed8e" stroke-width="2.000" />
	<text y="107.423" text-anchor="middle" font-family="Super Sans" font-size="8.00" fill="#000000" x="1440.000" >
		20
	</text>
	<circle cx="1020.000" cy="51.962" r="10.000" fill="#ffffff" stroke="#665782" stroke-width="2.000" />
	<text x="1020.000" y="55.462" text-anchor="middle" font-family="Super Sans" font-size="8.00" fill="#000000" >
		30
	</text>
	<circle cx="1605.000" cy="129.904" r="10.000" fill="#ffffff" stroke="#b8ed8e" stroke-width="2.000" />
	<text x="1605.000" y="133.404" text-anchor="middle" font-family="Super Sans" font-size="8.00" fill="#000000" >
		6
	</text>
	<circle fill="#ffffff" stroke="#665782" stroke-width="2.000" cx="1620.000" cy="51.962" r="10.000" />
	<text x="1620.000" y="55.462" text-anchor="middle" font-family="Super Sans" font-size="8.00" fill="#000000" >
		90
	</text>
	<circle stroke="#665782" stroke-width="2.000" cx="210.000" cy="51.962" r="10.000" fill="#ffffff" />
	<text font-family="Super Sans" font-size="8.00" fill="#000000" x="210.000" y="55.462" text-anchor="middle" >
		79
	</text>
	<circle stroke-width="2.000" cx="240.000" cy="51.962" r="10.000" fill="#ffffff" stroke="#665782" />
	<text font-size="8.00" fill="#000000" x="240.000" y="55.462" text-anchor="middle" font-family="Super Sans" >
		88
	</text>
	<circle cy="51.962" r="10.000" fill="#ffffff" stroke="#665782" stroke-width="2.000" cx="1530.000" />
	<text x="1530.000" y="55.462" text-anchor="middle" font-family="Super Sans" font-size="8.00" fill="#000000" >
		79
	</text>
	<circle r="10.000" fill="#ffffff" stroke="#665782" stroke-width="2.000" cx="300.000" cy="51.962" />
	<text fill="#000000" x="300.000" y="55.462" text-anchor="middle" font-family="Super Sans" font-size="8.00" >
		90
	</text>
	<circle cx="1635.000" cy="77.942" r="10.000" fill="#ffffff" stroke="#b8ed8e" stroke-width="2.000" />
	<text x="1635.000" y="81.442" text-anchor="middle" font-family="Super Sans" font-size="8.00" fill="#000000" >
		3
	</text>
	<circle cx="1590.000" cy="103.923" r="10.000" fill="#ffffff" stroke="#b8ed8e" stroke-width="2.000" />
	<text font-family="Super Sans" font-size="8.00" fill="#000000" x="1590.000" y="107.423" text-anchor="middle" >
		5
	</text>
	<circle r="10.000" fill="#ffffff" stroke="#b8ed8e" stroke-width="2.000" cx="1515.000" cy="77.942" />
	<text x="1515.000" y="81.442" text-anchor="middle" font-family="Super Sans" font-size="8.00" fill="#000000" >
		15
	</text>
	<circle r="10.000" fill="#ffffff" stroke="#665782" stroke-width="2.000" cx="1770.000" cy="51.962" />
	<text fill="#000000" x="1770.000" y="55.462" text-anchor="middle" font-family="Super Sans" font-size="8.00" >
		109
	</text>
	<circle stroke="#665782" stroke-width="2.000" cx="720.000" cy="51.962" r="10.000" fill="#ffffff" />
	<text x="720.000" y="55.462" text-anchor="middle" font-family="Super Sans" font-size="8.00" fill="#000000" >
		132
	</text>
	<circle cx="1545.000" cy="77.942" r="10.000" fill="#ffffff" stroke="#b8ed8e" stroke-width="2.000" />
	<text text-anchor="middle" font-family="Super Sans" font-size="8.00" fill="#000000" x="1545.000" y="81.442" >
		10
	</text>
	<circle r="10.000" fill="#ffffff" stroke="#665782" stroke-width="2.000" cx="750.000" cy="51.962" />
	<text x="750.000" y="55.462" text-anchor="middle" font-family="Super Sans" font-size="8.00" fill="#000000" >
		1
	</text>
	<circle stroke-width="2.000" cx="1170.000" cy="51.962" r="10.000" fill="#ffffff" stroke="#665782" />
	<text y="55.462" text-anchor="middle" font-family="Super Sans" font-size="8.00" fill="#000000" x="1170.000" >
		43
	</text>
	<circle stroke="#665782" stroke-width="2.000" cx="1410.000" cy="51.962" r="10.000" fill="#ffffff" />
	<text y="55.462" text-anchor="middle" font-family="Super Sans" font-size="8.00" fill="#000000" x="1410.000" >
		67
	</text>
	<circle stroke="#665782" stroke-width="2.000" cx="30.000" cy="0.000" r="10.000" fill="#ffffff" />
	<text x="30.000" y="3.500" text-anchor="middle" font-family="Super Sans" font-size="8.00" fill="#000000" >
		59
	</text>
	<circle cy="51.962" r="10.000" fill="#ffffff" stroke="#665782" stroke-width="2.000" cx="90.000" />
	<text fill="#000000" x="90.000" y="55.462" text-anchor="middle" font-family="Super Sans" font-size="8.00" >
		67
	</text>
	<circle stroke="#665782" stroke-width="2.000" cx="1740.000" cy="51.962" r="10.000" fill="#ffffff" />
	<text x="1740.000" y="55.462" text-anchor="middle" font-family="Super Sans" font-size="8.00" fill="#000000" >
		108
	</text>
	<circle r="10.000" fill="#ffffff" stroke="#665782" stroke-width="2.000" cx="1290.000" cy="51.962" />
	<text fill="#000000" x="1290.000" y="55.462" text-anchor="middle" font-family="Super Sans" font-size="8.00" >
		55
	</text>
	<circle stroke="#665782" stroke-width="2.000" cx="150.000" cy="51.962" r="10.000" fill="#ffffff" />
	<text text-anchor="middle" font-family="Super Sans" font-size="8.00" fill="#000000" x="150.000" y="55.462" >
		77
	</text>
	<circle cx="180.000" cy="51.962" r="10.000" fill="#ffffff" stroke="#665782" stroke-width="2.000" />
	<text x="180.000" y="55.462" text-anchor="middle" font-family="Super Sans" font-size="8.00" fill="#000000" >
		78
	</text>
	<circle stroke-width="2.000" cx="1695.000" cy="77.942" r="10.000" fill="#ffffff" stroke="#665782" />
	<text font-size="8.00" fill="#000000" x="1695.000" y="81.442" text-anchor="middle" font-family="Super Sans" >
		126
	</text>
	<circle cx="1485.000" cy="77.942" r="10.000" fill="#ffffff" stroke="#b8ed8e" stroke-width="2.000" />
	<text x="1485.000" y="81.442" text-anchor="middle" font-family="Super Sans" font-size="8.00" fill="#000000" >
		16
	</text>
	<circle cx="660.000" cy="51.962" r="10.000" fill="#ffffff" stroke="#665782" stroke-width="2.000" />
	<text text-anchor="middle" font-family="Super Sans" font-size="8.00" fill="#000000" x="660.000" y="55.462" >
		126
	</text>
	<circle fill="#ffffff" stroke="#665782" stroke-width="2.000" cx="1665.000" cy="129.904" r="10.000" />
	<text x="1665.000" y="133.404" text-anchor="middle" font-family="Super Sans" font-size="8.00" fill="#000000" >
		132
	</text>
	<circle stroke="#665782" stroke-width="2.000" cx="1665.000" cy="77.942" r="10.000" fill="#ffffff" />
	<text text-anchor="middle" font-family="Super Sans" font-size="8.00" fill="#000000" x="1665.000" y="81.442" >
		130
	</text>
	<circle fill="#ffffff" stroke="#b8ed8e" stroke-width="2.000" cx="1575.000" cy="77.942" r="10.000" />
	<text font-size="8.00" fill="#000000" x="1575.000" y="81.442" text-anchor="middle" font-family="Super Sans" >
		9
	</text>
	<circle r="10.000" fill="#ffffff" stroke="#b8ed8e" stroke-width="2.000" cx="1365.000" cy="77.942" />
	<text x="1365.000" y="81.442" text-anchor="middle" font-family="Super Sans" font-size="8.00" fill="#000000" >
		28
	</text>
	<circle fill="#ffffff" stroke="#665782" stroke-width="2.000" cx="690.000" cy="51.962" r="10.000" />
	<text font-size="8.00" fill="#000000" x="690.000" y="55.462" text-anchor="middle" font-family="Super Sans" >
		127
	</text>
	<circle stroke-width="2.000" cx="630.000" cy="51.962" r="10.000" fill="#ffffff" stroke="#665782" />
	<text y="55.462" text-anchor="middle" font-family="Super Sans" font-size="8.00" fill="#000000" x="630.000" >
		121
	</text>
	<circle cx="60.000" cy="0.000" r="10.000" fill="#ffffff" stroke="#665782" stroke-width="2.000" />
	<text x="60.000" y="3.500" text-anchor="middle" font-family="Super Sans" font-size="8.00" fill="#000000" >
		60
	</text>
	<circle fill="#ffffff" stroke="#665782" stroke-width="2.000" cx="1560.000" cy="51.962" r="10.000" />
	<text text-anchor="middle" font-family="Super Sans" font-size="8.00" fill="#000000" x="1560.000" y="55.462" >
		88
	</text>
	<circle cy="51.962" r="10.000" fill="#ffffff" stroke="#665782" stroke-width="2.000" cx="60.000" />
	<text x="60.000" y="55.462" text-anchor="middle" font-family="Super Sans" font-size="8.00" fill="#000000" >
		66
	</text>
	<circle cx="1725.000" cy="77.942" r="10.000" fill="#ffffff" stroke="#665782" stroke-width="2.000" />
	<text text-anchor="middle" font-family="Super Sans" font-size="8.00" fill="#000000" x="1725.000" y="81.442" >
		125
	</text>
	<circle cx="1320.000" cy="51.962" r="10.000" fill="#ffffff" stroke="#665782" stroke-width="2.000" />
	<text font-size="8.00" fill="#000000" x="1320.000" y="55.462" text-anchor="middle" font-family="Super Sans" >
		64
	</text>
	<circle stroke-width="2.000" cx="540.000" cy="51.962" r="10.000" fill="#ffffff" stroke="#665782" />
	<text fill="#000000" x="540.000" y="55.462" text-anchor="middle" font-family="Super Sans" font-size="8.00" >
		114
	</text>
	<circle cx="1650.000" cy="103.923" r="10.000" fill="#ffffff" stroke="#665782" stroke-width="2.000" />
	<text y="107.423" text-anchor="middle" font-family="Super Sans" font-size="8.00" fill="#000000" x="1650.000" >
		131
	</text>
	<circle cy="51.962" r="10.000" fill="#ffffff" stroke="#665782" stroke-width="2.000" cx="30.000" />
	<text x="30.000" y="55.462" text-anchor="middle" font-family="Super Sans" font-size="8.00" fill="#000000" >
		65
	</text>
	<circle cx="930.000" cy="51.962" r="10.000" fill="#ffffff" stroke="#665782" stroke-width="2.000" />
	<text fill="#000000" x="930.000" y="55.462" text-anchor="middle" font-family="Super Sans" font-size="8.00" >
		23
	</text>
	<circle fill="#ffffff" stroke="#665782" stroke-width="2.000" cx="1815.000" cy="77.942" r="10.000" />
	<text y="81.442" text-anchor="middle" font-family="Super Sans" font-size="8.00" fill="#000000" x="1815.000" >
		122
	</text>
	<circle fill="#ffffff" stroke="#665782" stroke-width="2.000" cx="840.000" cy="51.962" r="10.000" />
	<text x="840.000" y="55.462" text-anchor="middle" font-family="Super Sans" font-size="8.00" fill="#000000" >
		12
	</text>
	<circle stroke-width="2.000" cx="1635.000" cy="129.904" r="10.000" fill="#ffffff" stroke="#b8ed8e" />
	<text x="1635.000" y="133.404" text-anchor="middle" font-family="Super Sans" font-size="8.00" fill="#000000" >
		1
	</text>
	<circle r="10.000" fill="#ffffff" stroke="#b8ed8e" stroke-width="2.000" cx="1500.000" cy="103.923" />
	<text x="1500.000" y="107.423" text-anchor="middle" font-family="Super Sans" font-size="8.00" fill="#000000" >
		14
	</text>
	<circle fill="#ffffff" stroke="#b8ed8e" stroke-width="2.000" cx="1380.000" cy="103.923" r="10.000" />
	<text x="1380.000" y="107.423" text-anchor="middle" font-family="Super Sans" font-size="8.00" fill="#000000" >
		26
	</text>
	<circle cx="1365.000" cy="129.904" r="10.000" fill="#ffffff" stroke="#b8ed8e" stroke-width="2.000" />
	<text x="1365.000" y="133.404" text-anchor="middle" font-family="Super Sans" font-size="8.00" fill="#000000" >
		30
	</text>
	<circle stroke="#665782" stroke-width="2.000" cx="1680.000" cy="103.923" r="10.000" fill="#ffffff" />
	<text font-size="8.00" fill="#000000" x="1680.000" y="107.423" text-anchor="middle" font-family="Super Sans" >
		129
	</text>
	<circle cx="1395.000" cy="77.942" r="10.000" fill="#ffffff" stroke="#b8ed8e" stroke-width="2.000" />
	<text text-anchor="middle" font-family="Super Sans" font-size="8.00" fill="#000000" x="1395.000" y="81.442" >
		27
	</text>
	<circle stroke="#665782" stroke-width="2.000" cx="450.000" cy="51.962" r="10.000" fill="#ffffff" />
	<text fill="#000000" x="450.000" y="55.462" text-anchor="middle" font-family="Super Sans" font-size="8.00" >
		103
	</text>
	<circle cx="75.000" cy="25.981" r="10.000" fill="#ffffff" stroke="#665782" stroke-width="2.000" />
	<text font-family="Super Sans" font-size="8.00" fill="#000000" x="75.000" y="29.481" text-anchor="middle" >
		61
	</text>
	<circle stroke="#b8ed8e" stroke-width="2.000" cx="1545.000" cy="129.904" r="10.000" fill="#ffffff" />
	<text y="133.404" text-anchor="middle" font-family="Super Sans" font-size="8.00" fill="#000000" x="1545.000" >
		12
	</text>
	<circle cx="1695.000" cy="129.904" r="10.000" fill="#ffffff" stroke="#665782" stroke-width="2.000" />
	<text x="1695.000" y="133.404" text-anchor="middle" font-family="Super Sans" font-size="8.00" fill="#000000" >
		128
	</text>
	<circle cx="1605.000" cy="77.942" r="10.000" fill="#ffffff" stroke="#b8ed8e" stroke-width="2.000" />
	<text font-family="Super Sans" font-size="8.00" fill="#000000" x="1605.000" y="81.442" text-anchor="middle" >
		4
	</text>
	<circle cx="1440.000" cy="51.962" r="10.000" fill="#ffffff" stroke="#665782" stroke-width="2.000" />
	<text x="1440.000" y="55.462" text-anchor="middle" font-family="Super Sans" font-size="8.00" fill="#000000" >
		76
	</text>
	<circle stroke-width="2.000" cx="1785.000" cy="77.942" r="10.000" fill="#ffffff" stroke="#665782" />
	<text text-anchor="middle" font-family="Super Sans" font-size="8.00" fill="#000000" x="1785.000" y="81.442" >
		123
	</text>
	<circle r="10.000" fill="#ffffff" stroke="#665782" stroke-width="2.000" cx="270.000" cy="51.962" />
	<text x="270.000" y="55.462" text-anchor="middle" font-family="Super Sans" font-size="8.00" fill="#000000" >
		89
	</text>
	<circle cy="51.962" r="10.000" fill="#ffffff" stroke="#665782" stroke-width="2.000" cx="1260.000" />
	<text font-family="Super Sans" font-size="8.00" fill="#000000" x="1260.000" y="55.462" text-anchor="middle" >
		54
	</text>
	<circle cx="1230.000" cy="51.962" r="10.000" fill="#ffffff" stroke="#665782" stroke-width="2.000" />
	<text font-family="Super Sans" font-size="8.00" fill="#000000" x="1230.000" y="55.462" text-anchor="middle" >
		49
	</text>
	<circle stroke-width="2.000" cx="1410.000" cy="103.923" r="10.000" fill="#ffffff" stroke="#b8ed8e" />
	<text fill="#000000" x="1410.000" y="107.423" text-anchor="middle" font-family="Super Sans" font-size="8.00" >
		23
	</text>
	<circle r="10.000" fill="#ffffff" stroke="#665782" stroke-width="2.000" cx="960.000" cy="51.962" />
	<text x="960.000" y="55.462" text-anchor="middle" font-family="Super Sans" font-size="8.00" fill="#000000" >
		24
	</text>
	<circle stroke-width="2.000" cx="45.000" cy="25.981" r="10.000" fill="#ffffff" stroke="#665782" />
	<text x="45.000" y="29.481" text-anchor="middle" font-family="Super Sans" font-size="8.00" fill="#000000" >
		62
	</text>
	<circle fill="#ffffff" stroke="#665782" stroke-width="2.000" cx="600.000" cy="51.962" r="10.000" />
	<text x="600.000" y="55.462" text-anchor="middle" font-family="Super Sans" font-size="8.00" fill="#000000" >
		120
	</text>
	<circle cx="15.000" cy="25.981" r="10.000" fill="#ffffff" stroke="#665782" stroke-width="2.000" />
	<text y="29.481" text-anchor="middle" font-family="Super Sans" font-size="8.00" fill="#000000" x="15.000" >
		63
	</text>
	<circle cy="51.962" r="10.000" fill="#ffffff" stroke="#665782" stroke-width="2.000" cx="420.000" />
	<text x="420.000" y="55.462" text-anchor="middle" font-family="Super Sans" font-size="8.00" fill="#000000" >
		102
	</text>
	<circle cy="51.962" r="10.000" fill="#ffffff" stroke="#665782" stroke-width="2.000" cx="900.000" />
	<text x="900.000" y="55.462" text-anchor="middle" font-family="Super Sans" font-size="8.00" fill="#000000" >
		22
	</text>
	<circle cx="1620.000" cy="103.923" r="10.000" fill="#ffffff" stroke="#b8ed8e" stroke-width="2.000" />
	<text x="1620.000" y="107.423" text-anchor="middle" font-family="Super Sans" font-size="8.00" fill="#000000" >
		2
	</text>
	<circle stroke-width="2.000" cx="1110.000" cy="51.962" r="10.000" fill="#ffffff" stroke="#665782" />
	<text y="55.462" text-anchor="middle" font-family="Super Sans" font-size="8.00" fill="#000000" x="1110.000" >
		37
	</text>
	<circle cy="51.962" r="10.000" fill="#ffffff" stroke="#665782" stroke-width="2.000" cx="810.000" />
	<text text-anchor="middle" font-family="Super Sans" font-size="8.00" fill="#000000" x="810.000" y="55.462" >
		11
	</text>
	<circle r="10.000" fill="#ffffff" stroke="#665782" stroke-width="2.000" cx="1350.000" cy="51.962" />
	<text x="1350.000" y="55.462" text-anchor="middle" font-family="Super Sans" font-size="8.00" fill="#000000" >
		65
	</text>
	<circle cy="129.904" r="10.000" fill="#ffffff" stroke="#b8ed8e" stroke-width="2.000" cx="1455.000" />
	<text x="1455.000" y="133.404" text-anchor="middle" font-family="Super Sans" font-size="8.00" fill="#000000" >
		19
	</text>
</svg>
